<svg width="80" height="80" viewBox="0 0 80 80" fill="none" xmlns="http://www.w3.org/2000/svg">
<path d="M40 77C60.4345 77 77 60.4345 77 40C77 19.5655 60.4345 3 40 3C19.5655 3 3 19.5655 3 40C3 60.4345 19.5655 77 40 77Z" fill="#A3B7CC"/>
<path d="M40 4C59.85 4 76 20.15 76 40C76 59.85 59.85 76 40 76C20.15 76 4 59.85 4 40C4 20.15 20.15 4 40 4ZM40 2C19.014 2 2 19.014 2 40C2 60.986 19.014 78 40 78C60.986 78 78 60.986 78 40C78 19.014 60.986 2 40 2Z" fill="#66798F"/>
<path d="M75.124 48.162C75.124 36.798 66.13 26.628 55.154 25.208C52.604 29.85 47.672 33 42 33C33.716 33 27 26.284 27 18C27 9.91 33.41 3.332 41.428 3.028C41.282 3.026 41.144 3 41 3C28.85 3 17 12.85 17 25C17 29.842 17.888 33.874 19.246 37.064C19.66 37.028 20.076 37 20.5 37C28.508 37 35 43.492 35 51.5C35 59.508 28.508 66 20.5 66C19.848 66 19.212 65.942 18.582 65.858C15.716 65.55 12.952 64.586 10.896 62.878C14.896 67.016 19.792 70 26 70C34.952 70 43.01 67.412 47.532 59.53C45.176 56.822 45 53.436 45 51.5C45 43.492 51.492 37 59.5 37C68.176 37 74.508 44.3 74.508 52.308C74.508 52.75 74.48 53.186 74.442 53.618C74.88 51.87 75.124 50.046 75.124 48.162Z" fill="#F2FAFF" stroke="#66798F" stroke-width="2" stroke-miterlimit="10"/>
</svg>
